<svg width="67" height="67" viewBox="0 0 67 67" fill="none" xmlns="http://www.w3.org/2000/svg">
<path d="M62.72 3.5C62.95 3.5 63.14 3.69 63.14 3.92V62.72C63.14 62.95 62.95 63.14 62.72 63.14H44.66C44.6 60.32 42.29 58.04 39.45 58.04H27.19C24.35 58.04 22.04 60.32 21.98 63.14H3.92C3.69 63.14 3.5 62.95 3.5 62.72V3.92C3.5 3.69 3.69 3.5 3.92 3.5H62.72ZM62.72 0H3.92C1.76 0 0 1.76 0 3.92V62.72C0 64.88 1.76 66.64 3.92 66.64H25.48V63.25C25.48 62.31 26.25 61.54 27.19 61.54H39.45C40.39 61.54 41.16 62.31 41.16 63.25V66.64H62.72C64.88 66.64 66.64 64.88 66.64 62.72V3.92C66.64 1.76 64.88 0 62.72 0Z" fill="#024484"/>
</svg>
